<?xml version="1.0" encoding="UTF-8" standalone="no"?>
<!-- Created with Inkscape (http://www.inkscape.org/) -->

<svg
   xmlns:dc="http://purl.org/dc/elements/1.1/"
   xmlns:cc="http://creativecommons.org/ns#"
   xmlns:rdf="http://www.w3.org/1999/02/22-rdf-syntax-ns#"
   xmlns:svg="http://www.w3.org/2000/svg"
   xmlns="http://www.w3.org/2000/svg"
   xmlns:sodipodi="http://sodipodi.sourceforge.net/DTD/sodipodi-0.dtd"
   xmlns:inkscape="http://www.inkscape.org/namespaces/inkscape"
   id="svg2"
   version="1.1"
   inkscape:version="0.91 r13725"
   xml:space="preserve"
   width="246.60693"
   height="110.16447"
   viewBox="0 0 246.60694 110.16446"
   sodipodi:docname="logo_de_la_correo_pagina2017_29_08.ai.svg"
   inkscape:export-filename="/home/andres/Dropbox/ingenialo/logo/logo.png"
   inkscape:export-xdpi="90"
   inkscape:export-ydpi="90"><metadata
     id="metadata8"><rdf:RDF><cc:Work
         rdf:about=""><dc:format>image/svg+xml</dc:format><dc:type
           rdf:resource="http://purl.org/dc/dcmitype/StillImage" /><dc:title></dc:title></cc:Work></rdf:RDF></metadata><defs
     id="defs6"><clipPath
       clipPathUnits="userSpaceOnUse"
       id="clipPath40"><path
         d="M 0,200 249,200 249,0 0,0 0,200 Z"
         id="path42"
         inkscape:connector-curvature="0" /></clipPath></defs><sodipodi:namedview
     pagecolor="#ffffff"
     bordercolor="#666666"
     borderopacity="0"
     objecttolerance="10"
     gridtolerance="10"
     guidetolerance="10"
     inkscape:pageopacity="0"
     inkscape:pageshadow="2"
     inkscape:window-width="1366"
     inkscape:window-height="705"
     id="namedview4"
     showgrid="false"
     inkscape:zoom="1.4142136"
     inkscape:cx="101.41019"
     inkscape:cy="0.78311381"
     inkscape:window-x="0"
     inkscape:window-y="30"
     inkscape:window-maximized="1"
     inkscape:current-layer="g10"
     fit-margin-top="0"
     fit-margin-left="0"
     fit-margin-right="0"
     fit-margin-bottom="0"
     units="px" /><g
     id="g10"
     inkscape:groupmode="layer"
     inkscape:label="logo_de_la_correo_pagina2017_29_08"
     transform="matrix(1.25,0,0,-1.25,-10.067283,264.74999)"><g
       id="g12"
       transform="matrix(0.57434621,0,0,0.57434621,104.26357,162.22978)" /><g
       id="g16"
       transform="matrix(0.54276717,0,0,0.54276717,43.586079,203.8)"><path
         id="path18"
         style="fill:#00b3e3;fill-opacity:1;fill-rule:nonzero;stroke:none"
         d="m 0,0 -3.605,-0.146 -3.595,-0.296 -3.573,-0.487 -3.708,-0.751 -3.657,-0.964 -3.594,-1.166 -3.523,-1.361 -3.441,-1.551 -3.351,-1.732 -3.25,-1.91 -3.138,-2.081 -3.017,-2.248 -2.701,-2.315 -2.581,-2.446 -2.485,-2.539 -2.353,-2.657 -2.105,-2.716 -1.965,-2.814 -1.817,-2.91 -1.66,-2.999 -1.501,-3.079 -1.339,-3.15 -1.182,-3.209 -1.032,-3.261 -0.732,-2.878 -0.56,-2.912 0.966,-1.732 1.705,-2.958 1.157,-3.206 0.23,-1.547 1.363,0 0.078,1.883 0.375,3.628 0.597,3.599 0.816,3.557 1.032,3.502 1.246,3.434 1.457,3.348 1.665,3.253 1.866,3.147 2.057,3.03 2.239,2.901 2.412,2.765 2.573,2.619 2.729,2.464 2.872,2.3 3.006,2.128 3.13,1.946 3.246,1.755 3.348,1.556 3.441,1.348 3.521,1.131 3.586,0.907 3.56,0.685 3.59,0.496 3.615,0.292 3.626,0.078 3.623,-0.142 3.608,-0.36 3.58,-0.571 3.54,-0.773 3.592,-1.002 3.523,-1.218 3.442,-1.428 3.345,-1.633 3.236,-1.831 3.117,-2.023 2.986,-2.206 2.843,-2.381 2.691,-2.548 2.526,-2.704 2.355,-2.851 2.173,-2.987 1.984,-3.112 1.787,-3.225 1.583,-3.326 1.372,-3.416 1.156,-3.493 0.939,-3.555 0.707,-3.31 0.464,-3.35 0.163,-3.379 0.007,-0.928 1.065,0 0.204,1.604 0.983,2.721 1.327,2.579 1.752,2.307 -0.237,2.552 -0.887,3.549 -1.083,3.497 -1.279,3.431 -1.472,3.357 -1.658,3.271 -1.839,3.175 -2.014,3.07 -2.185,2.957 -2.346,2.834 -2.5,2.704 -2.648,2.564 -2.786,2.418 -2.916,2.265 -3.037,2.105 -3.15,1.939 -3.254,1.766 -3.345,1.589 -3.431,1.405 -3.503,1.218 -3.566,1.027 -3.617,0.834 -3.661,0.637 L 7.21,-0.208 3.607,-0.007 0,0 Z m 63.0459,-64.021 -1.064,0 0.019,-2.454 -0.023,-3.194 -0.137,-3.189 -0.397,-3.17 -0.629,-3.133 -0.879,-3.484 -1.089,-3.428 -1.295,-3.357 -1.497,-3.275 -1.695,-3.181 -1.884,-3.075 -2.069,-2.959 -2.245,-2.832 -2.414,-2.693 -2.572,-2.548 -2.723,-2.392 -2.863,-2.227 -2.995,-2.056 -3.112,-1.877 -3.222,-1.69 -3.455,-1.588 -3.545,-1.383 -3.636,-1.132 -3.705,-0.886 -3.748,-0.692 0,10e-4 -2.703,-0.314 -2.72,-0.121 -2.723,-0.049 -3.173,-0.024 -3.173,0.041 -3.347,0.441 -3.326,0.572 -3.293,0.726 -3.249,0.904 -3.19,1.09 -3.118,1.272 -3.041,1.441 -3.308,1.802 -3.191,1.998 -3.056,2.19 -2.915,2.371 -2.76,2.544 -2.596,2.706 -2.419,2.858 -2.237,3 -2.044,3.13 -1.844,3.248 -1.638,3.353 -1.424,3.446 -1.206,3.526 -0.964,3.52 -0.743,3.573 -0.52,3.609 -0.296,3.635 -0.072,3.646 0.073,1.76 -1.363,0 0.214,-1.443 -0.025,-3.023 -0.498,-2.982 -1.078,-3.027 -1.621,-2.78 -1.042,-1.476 0.528,-2.275 0.952,-3.642 1.155,-3.583 1.362,-3.514 1.562,-3.432 1.756,-3.34 1.941,-3.239 2.038,-3.008 2.202,-2.893 2.362,-2.768 2.511,-2.64 2.654,-2.5 2.786,-2.357 2.911,-2.206 3.027,-2.049 3.134,-1.887 3.234,-1.717 3.323,-1.542 3.404,-1.362 3.474,-1.176 3.537,-0.985 3.728,-0.799 3.764,-0.621 3.792,-0.431 3.78,-0.178 3.785,0.026 3.778,0.233 3.759,0.439 3.728,0.642 3.686,0.847 3.633,1.046 3.568,1.244 3.492,1.438 3.404,1.626 3.307,1.811 3.198,1.991 3.08,2.165 2.95,2.332 2.813,2.492 2.664,2.644 2.51,2.788 2.243,2.788 2.092,2.9 1.934,3.004 1.774,3.098 1.604,3.185 1.433,3.265 1.251,3.336 1.065,3.398 0.869,3.451 0.351,1.583 -1.108,1.435 -1.833,3.021 -1.235,3.303 -0.383,2.974 -10e-4,3 0.175,1.37 z"
         inkscape:connector-curvature="0" /></g><g
       id="g20"
       transform="translate(114.0811,186.2222)" /><g
       id="g24"
       transform="matrix(0.57434621,0,0,0.57434621,100.0087,161.85175)" /><g
       id="g28"
       transform="translate(103.5371,132.5518)" /><g
       id="g32"
       transform="matrix(0.54276717,0,0,0.54276717,64.467004,167.7341)"><path
         id="path34"
         style="fill:#00b3e3;fill-opacity:1;fill-rule:nonzero;stroke:none"
         d="m -1.6949153,-0.42372881 -0.354,-2.72899999 -1.04,-2.554 -1.669,-2.207 -2.153,-1.675 -2.522,-1.0630002 -2.7199997,-0.364 -2.745,0.369 -2.542,1.0830002 -2.161,1.705 -1.643,2.196 -1.022,2.534 -0.345,2.70499999 0.345,2.70500001 1.022,2.534 1.643,2.196 2.161,1.706 2.542,1.083 2.745,0.3679998 2.7199997,-0.3639998 2.522,-1.063 2.153,-1.675 1.669,-2.207 1.04,-2.554 0.354,-2.72900001 z m -49.8232997,0 -0.354,-2.72899999 -1.04,-2.554 -1.669,-2.207 -2.153,-1.675 -2.522,-1.0630002 -2.72,-0.364 -2.745,0.369 -2.543,1.0830002 -2.161,1.705 -1.642,2.196 -1.023,2.534 -0.344,2.70499999 0.344,2.70500001 1.022,2.534 1.643,2.196 2.161,1.706 2.543,1.083 2.745,0.3679998 2.719,-0.3639998 2.523,-1.063 2.153,-1.675 1.669,-2.207 1.04,-2.554 0.354,-2.72900001 z m 69.1084,1.76900001 -12.8940003,0 0.222,-1.71300001 -0.577,-4.45999999 -1.7,-4.173 -2.72899996,-3.6070002 -3.51700004,-2.738 -4.123,-1.737 -4.4449997,-0.595 -4.486,0.603 -4.155,1.77 -3.532,2.787 -2.684,3.5880002 -1.671,4.141 -0.205,0.903 -0.47,0 -3.844,0 -3.842,0 -3.844,0 -3.844,0 -0.516,0 -0.216,-0.942 -1.7,-4.173 -2.729,-3.6070002 -3.518,-2.738 -4.123,-1.737 -4.444,-0.595 -4.486,0.603 -4.156,1.77 -3.532,2.787 -2.683,3.5880002 -1.671,4.141 -0.563,4.42099999 0.218,1.71300001 -12.851,0 -0.059,-1.76800001 0.118,-3.51899999 0.351,-3.504 0.583,-3.4740002 0.813,-3.429 1.039,-3.37 1.261,-3.296 1.478,-3.208 1.688,-3.105 1.891,-2.991 2.084,-2.861 2.272,-2.723 2.448,-2.57 2.613,-2.407 2.767,-2.233 2.91,-2.052 3.04,-1.86 3.159,-1.659 3.261,-1.454 3.352,-1.24 3.426,-1.023 3.486,-0.799 3.532,-0.574 3.233,-0.317 0,2.017 0,3.497 0,3.497 0,3.497 0,3.497 0,3.496 0,3.497 0,3.498 0,3.496 1.172,1.154 2.738,0 2.736,0 1.173,-1.154 0,-3.497 0,-3.497 0,-3.497 0,-3.497 0,-3.496 0,-3.497 0,-3.497 0,-3.497 0,-2.02 3.233,0.315 3.534,0.569 3.488,0.797 3.427,1.021 3.351,1.241 3.262,1.455 3.1559997,1.664 3.039,1.863 2.909,2.054 2.76700004,2.235 2.61199996,2.407 2.449,2.57 2.274,2.722 2.088,2.86 1.8930003,2.991 1.691,3.103 1.479,3.207 1.262,3.296 1.038,3.371 0.811,3.43 0.579,3.4750002 0.346,3.505 0.116,3.51999999 -0.059,1.76800001 z m -58.5644,51.9013998 -3.231,-0.318 -3.534,-0.573 -3.486,-0.8 -3.426,-1.023 -3.351,-1.24 -3.261,-1.453 -3.158,-1.66 -3.04,-1.859 -2.911,-2.052 -2.768,-2.234 -2.612,-2.407 -2.449,-2.57 -2.27,-2.721 -2.086,-2.862 -1.891,-2.991 -1.687,-3.106 -1.478,-3.207 -1.261,-3.296 -1.039,-3.37 -0.813,-3.428 -0.584,-3.4749998 -0.351,-3.504 -0.058,-1.752 12.85,0 0.345,2.707 1.671,4.141 2.684,3.5889998 3.532,2.788 4.155,1.769 4.487,0.603 4.443,-0.595 4.124,-1.737 3.517,-2.739 2.729,-3.6059998 1.7,-4.174 0.216,-0.941 0.517,0 3.843,0 3.844,0 3.843,0 3.844,0 0.469,0 0.205,0.902 1.671,4.141 2.684,3.5889998 3.532,2.788 4.155,1.769 4.487,0.603 4.4429997,-0.595 4.124,-1.737 3.51800004,-2.739 2.72799996,-3.6059998 1.701,-4.174 0.355,-2.746 12.8930003,0 -0.057,1.752 -0.352,3.503 -0.583,3.4749998 -0.813,3.429 -1.039,3.369 -1.262,3.296 -1.477,3.208 -1.688,3.105 -1.8910003,2.991 -2.085,2.862 -2.271,2.722 -2.448,2.57 -2.61299996,2.407 -2.76700004,2.234 -2.91,2.051 -3.04,1.859 -3.1589997,1.661 -3.261,1.453 -3.352,1.24 -3.426,1.022 -3.486,0.8 -3.532,0.574 -3.233,0.318 0,-2.021 0,-3.498 0,-3.497 0,-3.497 0,-3.496 0,-3.497 0,-3.497 0,-3.497 0,-3.497 -1.173,-1.153 -2.736,0 -2.737,0 -1.173,1.153 0,3.497 0,3.497 0,3.497 0,3.497 0,3.497 0,3.496 0,3.498 0,3.497 0,2.021 z"
         inkscape:connector-curvature="0" /></g><g
       id="g36"
       transform="matrix(0.50538668,0,0,0.50538668,81.519598,145.88114)"><g
         id="g38"
         clip-path="url(#clipPath40)"><g
           id="g44"
           transform="translate(7.7109,28.4111)"><path
             d="m 0,0 0,0 c -3.143,0 -5.713,2.371 -5.713,5.27 1.825,8.065 1.825,16.13 0,24.196 0,2.898 2.57,5.269 5.713,5.269 l 0,0 c 3.142,0 5.713,-2.371 5.713,-5.269 C 3.095,21.4 3.095,13.335 5.713,5.27 5.713,2.371 3.142,0 0,0"
             style="fill:#96a1aa;fill-opacity:1;fill-rule:nonzero;stroke:none"
             id="path46"
             inkscape:connector-curvature="0" /></g><g
           id="g48"
           transform="translate(101.7529,48.8037)"><path
             d="m 0,0 c -5.935,0.04 -11.868,0.08 -17.803,0.121 0.048,0.524 0.432,4.058 3.747,6.138 2.438,1.528 5.084,1.409 5.88,1.373 0.596,-0.027 1.849,-0.099 3.278,-0.691 0.522,-0.215 1.065,-0.503 1.608,-0.885 0.668,-0.47 2.089,-1.5 2.841,-3.45 C -0.185,1.921 0.348,0.777 0,0 M 7.035,0.381 C 6.6,2.766 6.382,3.957 5.895,5.123 c -1.341,3.2 -3.81,5.071 -4.84,5.833 -1.094,0.81 -4.483,3.242 -9.594,3.381 -5.23,0.142 -8.942,-2.205 -10.238,-3.126 -4.636,-3.289 -5.876,-7.839 -6.352,-9.7 -1.229,-4.808 -0.005,-8.672 0.528,-10.282 0.704,-2.118 1.869,-5.632 5.525,-8.389 3.122,-2.355 6.52,-2.994 8.472,-3.169 0.886,-0.079 3.625,-0.255 6.885,0.769 0,0 4.444,1.398 8.159,5.489 0.295,0.324 0.854,0.965 1.273,1.921 0.391,0.891 0.947,2.159 0.397,3.21 -0.779,1.489 -3.452,1.906 -4.866,1.018 -0.86,-0.54 -0.934,-1.36 -1.323,-2.127 -1.53,-3.022 -7.826,-4.997 -12.558,-2.9 -4.918,2.178 -5.592,7.511 -5.583,7.806 0.005,0.157 0.087,0.256 0.087,0.256 0.214,0.26 0.759,0.173 0.902,0.154 5.041,-0.702 10.198,-0.305 15.293,-0.541 4.568,-0.211 8.261,-0.346 9.273,1.433 0.35,0.614 0.138,1.825 -0.3,4.222"
             style="fill:#96a1aa;fill-opacity:1;fill-rule:nonzero;stroke:none"
             id="path50"
             inkscape:connector-curvature="0" /></g><g
           id="g52"
           transform="translate(148.4893,28.9658)"><path
             d="m 0,0 0,0 c -3.142,0 -5.713,2.295 -5.713,5.101 1.826,7.808 1.826,15.616 0,23.424 0,2.806 2.571,5.101 5.713,5.101 3.143,0 5.714,-2.295 5.714,-5.101 C 3.096,20.717 3.096,12.909 5.714,5.101 5.714,2.295 3.143,0 0,0"
             style="fill:#96a1aa;fill-opacity:1;fill-rule:nonzero;stroke:none"
             id="path54"
             inkscape:connector-curvature="0" /></g><g
           id="g56"
           transform="translate(178.7764,35.8916)"><path
             d="m 0,0 c -0.853,-0.113 -2.056,-0.245 -3.503,-0.316 -2.525,-0.123 -3.788,-0.185 -5.255,0.237 -0.532,0.153 -2.198,0.682 -3.884,2.133 -0.918,0.79 -2.209,2.171 -3.046,4.265 -0.392,0.981 -1.215,3.119 -0.685,5.766 0.399,1.996 1.375,3.311 1.979,4.107 0.505,0.664 1.714,2.22 3.884,3.239 2.489,1.169 4.729,0.921 5.788,0.79 0.959,-0.119 2.312,-0.301 3.808,-1.185 C 1.499,17.61 2.543,15.387 2.894,14.612 3.555,13.154 3.728,11.886 3.808,11.216 4.727,3.46 1.364,-3.271 4.036,-6.161 c 1.585,-1.716 4.894,-1.662 6.016,-0.395 0.78,0.88 0.261,2.073 0.076,5.608 -0.139,2.656 0.126,2.52 0.152,6.556 0.031,4.682 0.046,7.023 -0.381,8.768 -1.31,5.355 -5.047,8.534 -5.712,9.083 -0.737,0.61 -4.065,3.256 -9.137,3.713 -1.465,0.132 -5.827,0.458 -10.204,-2.37 -0.8,-0.517 -3.799,-2.559 -5.788,-6.635 -0.394,-0.806 -1.868,-3.985 -1.751,-8.373 0.036,-1.379 0.219,-5.974 3.426,-10.268 0.685,-0.917 2.907,-3.817 6.778,-5.293 1.145,-0.436 2.312,-0.606 4.645,-0.947 C -3.31,-7.376 -1.042,-7.708 0,-6.635 1.717,-4.867 0.274,-0.753 0,0"
             style="fill:#96a1aa;fill-opacity:1;fill-rule:nonzero;stroke:none"
             id="path58"
             inkscape:connector-curvature="0" /></g><g
           id="g60"
           transform="translate(199.8203,63.249)"><path
             d="M 0,0 C -0.078,-0.489 -0.178,-1.243 -0.217,-2.179 -0.244,-2.813 -0.221,-2.998 -0.246,-3.734 -0.28,-4.725 -0.35,-5.16 -0.42,-6.056 c -0.052,-0.66 -0.065,-1.06 -0.111,-2.725 -0.081,-2.897 -0.122,-4.345 -0.127,-4.687 -0.051,-3.257 0.009,-5.261 0.044,-6.235 0.085,-2.318 0.194,-3.186 0.485,-4.198 0.307,-1.067 0.623,-2.125 1.566,-3.225 0.386,-0.45 1.394,-1.596 3.065,-2.114 0.791,-0.244 1.686,-0.336 2.047,-0.372 0.792,-0.081 1.748,-0.098 1.792,-0.099 0.069,-0.001 0.179,-0.003 0.31,-0.003 0.241,-0.001 1.167,-0.003 2.032,0.08 1.405,0.135 1.45,0.379 1.758,0.232 0.792,-0.38 0.674,-2.071 0.442,-3.017 -0.289,-1.175 -0.951,-1.993 -1.361,-2.425 -2.714,-0.205 -4.963,-0.053 -6.579,0.143 -2.282,0.278 -3.786,0.707 -4.719,1.019 0,0 -2.862,0.957 -4.465,2.651 -0.613,0.55 -0.966,1.01 -1.162,1.244 -1.068,1.274 -1.462,2.445 -1.741,3.428 -1.157,4.088 -0.933,12.605 -0.933,12.605 0.022,2.26 0.038,3.777 0.05,4.801 0.006,0.569 0.006,1.101 0.019,2.166 0.021,1.704 0.036,2.988 0.102,4.604 0.025,0.619 0.059,1.354 0.109,2.184 2.599,0 5.197,0 7.797,-0.001"
             style="fill:#96a1aa;fill-opacity:1;fill-rule:nonzero;stroke:none"
             id="path62"
             inkscape:connector-curvature="0" /></g><g
           id="g64"
           transform="translate(76.333,56.3701)"><path
             d="m 0,0 c -0.813,1.479 -3.757,6.828 -10.462,8.329 -6.378,1.427 -11.533,-1.664 -12.206,-2.083 -0.856,-0.531 -3.145,-1.989 -4.649,-4.684 -2.457,-4.403 -1.711,-10.123 1.597,-13.991 0.815,-0.981 3.546,-4.009 8.483,-5.197 6.123,-1.472 11.053,0.991 12.006,1.489 0.017,0.901 -0.04,1.993 -0.272,3.219 -0.224,1.183 -0.557,2.201 -0.891,3.027 -4.06,-4.019 -10.903,-3.993 -14.53,-0.52 -3.228,3.09 -3.21,8.24 0,11.452 3.03,3.032 7.83,3.263 11.043,2.082 0.435,-0.16 3.07,-1.179 4.65,-3.644 0.468,-0.73 0.745,-1.441 1.163,-3.123 0.99,-3.994 1.162,-6.767 1.162,-6.767 0.116,-1.88 0.685,-11.522 0,-21.863 -0.054,-0.812 -0.203,-2.817 -1.162,-5.205 -0.461,-1.148 -0.844,-2.101 -1.744,-3.125 -2.129,-2.418 -5.204,-3.015 -5.813,-3.123 -0.714,-0.126 -3.899,-0.616 -6.974,1.041 -3.174,1.711 -5.871,5.516 -4.65,9.371 0.336,0.358 3.487,8.329 12.932,5.075 0.922,-0.2 2.093,-0.6 3.342,-1.432 0.258,0.755 0.5,1.594 0.701,2.511 0.255,1.171 0.394,2.253 0.462,3.216 -0.781,0.413 -6.279,3.21 -12.715,1.171 -5.246,-1.663 -7.652,-5.443 -8.209,-6.377 -2.371,-3.652 -2.776,-8.779 0,-13.014 3.145,-4.798 9.303,-6.804 14.53,-6.246 8.318,0.887 12.08,8.028 12.787,9.37 1.447,2.746 1.546,5.995 1.743,12.493 0.104,3.375 -0.123,6.981 -0.581,14.055 C 1.108,-2.677 0.838,-1.522 0,0"
             style="fill:#96a1aa;fill-opacity:1;fill-rule:nonzero;stroke:none"
             id="path66"
             inkscape:connector-curvature="0" /></g><g
           id="g68"
           transform="translate(62.4731,65.0723)"><path
             d="m 0,0 c -4.737,0 -8.259,-2.115 -8.808,-2.456 -0.856,-0.531 -3.146,-1.989 -4.65,-4.685 -2.456,-4.402 -1.71,-10.122 1.598,-13.99 0.815,-0.981 3.546,-4.01 8.483,-5.197 1.377,-0.331 2.695,-0.463 3.92,-0.463 4.221,0 7.348,1.565 8.085,1.952 0.018,0.901 -0.039,1.993 -0.271,3.219 -0.224,1.183 -0.557,2.201 -0.891,3.027 -2.097,-2.076 -4.937,-3.073 -7.693,-3.073 -2.579,0 -5.084,0.873 -6.837,2.553 -3.228,3.09 -3.21,8.24 0,11.452 1.951,1.953 4.637,2.744 7.161,2.744 1.394,0 2.738,-0.241 3.882,-0.662 0.435,-0.16 3.07,-1.179 4.649,-3.644 0.469,-0.73 0.746,-1.441 1.164,-3.123 0.99,-3.994 1.162,-6.767 1.162,-6.767 0.116,-1.88 0.685,-11.522 0,-21.864 -0.054,-0.811 -0.204,-2.816 -1.162,-5.205 -0.461,-1.147 -0.844,-2.1 -1.745,-3.123 -2.128,-2.42 -5.203,-3.016 -5.812,-3.124 -0.294,-0.051 -1.007,-0.165 -1.959,-0.165 -1.36,0 -3.207,0.232 -5.015,1.206 -3.174,1.711 -5.871,5.516 -4.65,9.37 0.28,0.298 2.504,5.855 8.669,5.855 1.253,0 2.668,-0.23 4.263,-0.779 0.922,-0.201 2.093,-0.6 3.342,-1.432 0.258,0.755 0.5,1.594 0.7,2.511 0.256,1.171 0.395,2.253 0.462,3.216 -0.576,0.304 -3.72,1.908 -7.915,1.908 -1.49,0 -3.112,-0.202 -4.799,-0.738 -5.246,-1.662 -7.652,-5.442 -8.209,-6.377 -2.372,-3.651 -2.776,-8.778 0,-13.013 2.804,-4.279 8.006,-6.337 12.806,-6.337 0.583,0 1.158,0.03 1.724,0.091 8.318,0.886 12.08,8.028 12.787,9.37 1.447,2.746 1.546,5.995 1.743,12.493 0.104,3.375 -0.123,6.98 -0.581,14.055 -0.635,9.816 -0.905,10.97 -1.743,12.493 -0.814,1.478 -3.757,6.828 -10.463,8.329 C 2.217,-0.109 1.077,0 0,0"
             style="fill:#96a1aa;fill-opacity:1;fill-rule:nonzero;stroke:none"
             id="path70"
             inkscape:connector-curvature="0" /></g><g
           id="g72"
           transform="translate(37.3911,50.6436)"><path
             d="m 0,0 0,-21.342 6.393,0 C 5.812,-18.219 6.975,0 4.649,5.206 3.546,6.921 1.658,9.887 -2.325,11.452 c -0.763,0.3 -4.636,1.747 -9.3,0.521 -0.625,-0.164 -3.746,-1.03 -6.393,-3.644 0,0 -1.358,-1.341 -2.325,-3.123 -2.324,-4.164 -1.162,-13.534 -1.712,-26.704 2.12,0.052 4.241,0.104 6.362,0.156 l 0,20.821 c 0,4.686 2.272,6.288 4.524,7.221 0.923,0.383 1.948,0.588 3.032,0.588 2.325,0 4.359,-0.781 5.812,-2.082 C -0.44,3.518 -0.152,1.312 0,0"
             style="fill:#96a1aa;fill-opacity:1;fill-rule:nonzero;stroke:none"
             id="path74"
             inkscape:connector-curvature="0" /></g><g
           id="g76"
           transform="translate(133.292,52.2061)"><path
             d="m 0,0 0,-21.343 6.394,0 C 5.812,-18.22 6.975,0 4.65,5.205 3.547,6.92 1.658,9.887 -2.324,11.452 c -0.764,0.3 -4.637,1.746 -9.3,0.521 -0.625,-0.165 -3.746,-1.03 -6.394,-3.645 0,0 -1.358,-1.341 -2.325,-3.123 -2.324,-4.164 -1.162,-13.534 -1.712,-26.703 2.121,0.052 4.242,0.103 6.363,0.155 l 0,20.822 c 0,4.685 2.271,6.287 4.523,7.22 0.924,0.384 1.948,0.588 3.032,0.588 2.325,0 4.36,-0.78 5.813,-2.082 C -0.439,3.517 -0.152,1.312 0,0"
             style="fill:#96a1aa;fill-opacity:1;fill-rule:nonzero;stroke:none"
             id="path78"
             inkscape:connector-curvature="0" /></g><g
           id="g80"
           transform="translate(226.4561,35.4629)"><path
             d="m 0,0 c -6.702,0 -12.136,5.071 -12.136,11.326 0,6.256 5.434,11.326 12.136,11.326 6.703,0 12.136,-5.07 12.136,-11.326 C 12.136,5.071 6.703,0 0,0 m 0,29.609 c -10.241,0 -18.543,-8.185 -18.543,-18.283 0,-10.097 8.302,-18.283 18.543,-18.283 10.241,0 18.544,8.186 18.544,18.283 0,10.098 -8.303,18.283 -18.544,18.283"
             style="fill:#96a1aa;fill-opacity:1;fill-rule:nonzero;stroke:none"
             id="path82"
             inkscape:connector-curvature="0" /></g></g></g><text
       transform="scale(1,-1)"
       style="font-variant:normal;font-weight:normal;font-stretch:condensed;font-size:9.7256279px;font-family:'Franklin Gothic Demi Cond';-inkscape-font-specification:FranklinGothic-DemiCond;writing-mode:lr-tb;fill:#96a1aa;fill-opacity:1;fill-rule:nonzero;stroke:none"
       id="text84"
       x="127.87542"
       y="-150.039"><tspan
         x="127.87542 130.52081 135.15994 139.79906 144.43819 148.45096 151.43671 154.42249 156.7372 161.37631 165.3541 167.16791 172.13773 174.61777 179.8132 182.29321"
         y="-150.039"
         sodipodi:role="line"
         id="tspan86">Industrias S.A.S</tspan></text>
</g></svg>